HIERARCHY
ROOT Hips
{
	OFFSET 0.000000 0.000000 0.000000
	CHANNELS 6 Xposition Yposition Zposition Xrotation Yrotation Zrotation
	JOINT Chest
	{
		OFFSET 0.000000 0.009282 11.569106
		CHANNELS 3 Xrotation Yrotation Zrotation
		JOINT Chest2
		{
			OFFSET 0.000000 -0.016863 9.269641
			CHANNELS 3 Xrotation Yrotation Zrotation
			JOINT Chest3
			{
				OFFSET 0.000000 0.000000 8.374491
				CHANNELS 3 Xrotation Yrotation Zrotation
				JOINT Chest4
				{
					OFFSET 0.000000 0.000000 8.374493
					CHANNELS 3 Xrotation Yrotation Zrotation
					JOINT Neck
					{
						OFFSET 0.000000 -0.000001 12.152554
						CHANNELS 3 Xrotation Yrotation Zrotation
						JOINT Head
						{
							OFFSET 0.000000 -0.040100 7.802319
							CHANNELS 3 Xrotation Yrotation Zrotation
							End Site
							{
								OFFSET 0.000000 -0.020946 14.853096
							}
						}
					}
					JOINT RightCollar
					{
						OFFSET -2.894404 0.000000 6.791374
						CHANNELS 3 Xrotation Yrotation Zrotation
						JOINT RightShoulder
						{
							OFFSET -13.574684 0.000000 0.000000
							CHANNELS 3 Xrotation Yrotation Zrotation
							JOINT RightElbow
							{
								OFFSET -23.923903 0.000000 0.000000
								CHANNELS 3 Xrotation Yrotation Zrotation
								JOINT RightWrist
								{
									OFFSET -19.846718 -0.012765 0.000000
									CHANNELS 3 Xrotation Yrotation Zrotation
									End Site
									{
										OFFSET -14.973145 0.000000 0.000000
									}
								}
							}
						}
					}
					JOINT LeftCollar
					{
						OFFSET 2.894404 0.000000 6.791374
						CHANNELS 3 Xrotation Yrotation Zrotation
						JOINT LeftShoulder
						{
							OFFSET 13.574684 0.000000 0.000000
							CHANNELS 3 Xrotation Yrotation Zrotation
							JOINT LeftElbow
							{
								OFFSET 23.923903 0.000000 0.000000
								CHANNELS 3 Xrotation Yrotation Zrotation
								JOINT LeftWrist
								{
									OFFSET 19.846718 -0.012765 0.000000
									CHANNELS 3 Xrotation Yrotation Zrotation
									End Site
									{
										OFFSET 14.973145 0.000000 0.000000
									}
								}
							}
						}
					}
				}
			}
		}
	}
	JOINT RightHip
	{
		OFFSET -9.469263 -0.004642 0.045487
		CHANNELS 3 Xrotation Yrotation Zrotation
		JOINT RightKnee
		{
			OFFSET 0.000000 -0.002666 -40.478676
			CHANNELS 3 Xrotation Yrotation Zrotation
			JOINT RightAnkle
			{
				OFFSET 0.000000 -0.049110 -35.224068
				CHANNELS 3 Xrotation Yrotation Zrotation
				JOINT RightToe
				{
					OFFSET 0.000000 -12.539530 -6.151390
					CHANNELS 3 Xrotation Yrotation Zrotation
					End Site
					{
						OFFSET 0.000000 -5.044995 -1.291870
					}
				}
			}
		}
	}
	JOINT LeftHip
	{
		OFFSET 9.469263 -0.004642 0.045487
		CHANNELS 3 Xrotation Yrotation Zrotation
		JOINT LeftKnee
		{
			OFFSET 0.000000 -0.002666 -40.478676
			CHANNELS 3 Xrotation Yrotation Zrotation
			JOINT LeftAnkle
			{
				OFFSET 0.000000 -0.049110 -35.224068
				CHANNELS 3 Xrotation Yrotation Zrotation
				JOINT LeftToe
				{
					OFFSET 0.000000 -12.539530 -6.151390
					CHANNELS 3 Xrotation Yrotation Zrotation
					End Site
					{
						OFFSET 0.000000 -5.044995 -1.291870
					}
				}
			}
		}
	}
}
MOTION
Frames: 11
Frame Time: 0.016667
-11.571699 -6.332815 83.028824 1.861642 4.852714 -109.081734 2.227753 0.441740 0.667660 0.989144 0.199307 0.306383 0.989144 0.199307 0.306381 0.741957 0.148984 0.230109 16.926506 -0.699807 -2.643594 -4.732930 -0.353855 -5.063311 -24.616205 -2.752914 -7.453240 -50.818981 -16.686996 6.734509 -13.147768 -40.692676 65.272498 -29.951025 -0.158401 24.229012 -19.682927 3.341221 0.569790 -48.829255 16.515416 -9.231025 -17.279750 22.698419 -64.796427 -25.917081 0.260135 -22.274659 7.446763 0.319205 -3.537937 2.148891 -1.296362 -6.389902 -3.941489 0.533141 2.608698 0.045335 -0.006367 0.008612 8.266956 0.629702 0.186381 1.154954 -0.882446 2.471959 -4.265581 0.776066 1.157381 0.035017 0.103972 -0.011893 
-11.546401 -6.341731 83.029030 1.878439 4.893720 -109.074563 2.266309 0.416681 0.653582 1.006462 0.187915 0.300933 1.006462 0.187915 0.300932 0.754939 0.140441 0.226006 16.889512 -0.666355 -2.693902 -4.799108 -0.273974 -5.143481 -24.639180 -2.799575 -7.391591 -50.812639 -16.660880 6.723074 -13.180283 -40.710175 65.315036 -29.869373 -0.312308 24.078556 -19.674859 3.355048 0.584179 -48.851415 16.581196 -9.240939 -17.193101 22.652906 -64.815825 -25.747003 0.257700 -22.169466 7.468801 0.319215 -3.547761 2.156799 -1.298769 -6.384676 -3.931483 0.534533 2.611905 0.046266 -0.005487 0.009234 8.283795 0.635293 0.142658 1.170323 -0.893395 2.443084 -4.264550 0.737378 1.215597 0.037354 0.112757 -0.012031 
-11.520210 -6.352742 83.029243 1.889813 4.926888 -109.077909 2.303162 0.395677 0.642069 1.022796 0.178527 0.296957 1.022796 0.178527 0.296956 0.767183 0.133398 0.223013 16.853191 -0.627460 -2.735636 -4.863979 -0.187151 -5.206077 -24.646540 -2.841782 -7.349144 -50.817697 -16.670753 6.723474 -13.213143 -40.699864 65.340725 -29.739456 -0.509927 23.857052 -19.634241 3.369194 0.567969 -48.938947 16.603625 -9.224369 -17.047387 22.591459 -64.815128 -25.577281 0.147035 -22.116450 7.480404 0.321811 -3.551923 2.163894 -1.301887 -6.387292 -3.920795 0.535368 2.623966 0.048029 -0.002953 0.008186 8.293212 0.645015 0.104828 1.181142 -0.902323 2.414760 -4.259209 0.695468 1.274752 0.037670 0.120485 -0.011681 
-11.492863 -6.362642 83.029404 1.900065 4.957103 -109.088168 2.340711 0.380115 0.637927 1.039152 0.172088 0.296151 1.039152 0.172088 0.296159 0.779447 0.128563 0.222412 16.815205 -0.593400 -2.768566 -4.932336 -0.112115 -5.254271 -24.637903 -2.863210 -7.345234 -50.868551 -16.708763 6.699454 -13.158565 -40.666933 65.375866 -29.582564 -0.574372 23.673473 -19.615957 3.380028 0.546399 -48.984771 16.612405 -9.229652 -16.917670 22.517534 -64.786947 -25.529536 0.042261 -22.055646 7.487706 0.325217 -3.555602 2.169748 -1.301818 -6.389656 -3.907163 0.531921 2.638946 0.049626 0.000398 0.006798 8.298300 0.649163 0.076387 1.196096 -0.901728 2.376948 -4.257364 0.651181 1.332173 0.037953 0.125832 -0.010212 
-11.465111 -6.371811 83.029694 1.910251 4.985607 -109.108529 2.373248 0.366495 0.639068 1.053485 0.165983 0.297666 1.053485 0.165983 0.297669 0.790194 0.123974 0.223534 16.774461 -0.562183 -2.787110 -5.006256 -0.047149 -5.277223 -24.595113 -2.871909 -7.349788 -50.930596 -16.757410 6.651880 -13.020273 -40.518755 65.445438 -29.339023 -0.421226 23.625684 -19.609550 3.375306 0.540767 -48.985290 16.659139 -9.242410 -16.840134 22.457758 -64.764298 -25.460642 0.004595 -21.927887 7.489738 0.330658 -3.557001 2.181140 -1.305801 -6.390036 -3.897296 0.528417 2.666063 0.052405 0.005441 0.005146 8.300409 0.652885 0.049915 1.214968 -0.898617 2.340341 -4.256599 0.608008 1.398367 0.036705 0.128047 -0.008824 
-11.438370 -6.380343 83.029396 1.917165 5.012064 -109.134716 2.404151 0.355510 0.640446 1.066914 0.161314 0.299548 1.066914 0.161314 0.299542 0.800264 0.120463 0.224944 16.732920 -0.533156 -2.788149 -5.082244 0.007732 -5.268996 -24.591683 -2.887520 -7.347827 -50.911482 -16.794059 6.620459 -12.880851 -40.267213 65.510469 -29.027921 -0.192352 23.609809 -19.598979 3.366264 0.538517 -48.990075 16.735051 -9.270277 -16.803920 22.401432 -64.717579 -25.355245 0.039384 -21.781101 7.492476 0.335535 -3.572898 2.185763 -1.304494 -6.381497 -3.885273 0.524814 2.691708 0.055921 0.008406 0.004882 8.301116 0.659488 0.029286 1.234554 -0.896820 2.313576 -4.258349 0.569104 1.451047 0.035837 0.128477 -0.009052 
-11.412901 -6.387503 83.028313 1.927719 5.037244 -109.165616 2.437140 0.344472 0.644816 1.081034 0.156417 0.302878 1.081035 0.156417 0.302877 0.810853 0.116778 0.227434 16.691464 -0.507198 -2.774495 -5.158583 0.051864 -5.235037 -24.608980 -2.915087 -7.338161 -50.840773 -16.814005 6.623608 -12.782754 -39.993882 65.550500 -28.676232 0.005734 23.547130 -19.608399 3.373470 0.516623 -49.003442 16.790026 -9.300874 -16.776567 22.352428 -64.660472 -25.241440 0.044811 -21.648618 7.499423 0.333606 -3.591066 2.183674 -1.298541 -6.368076 -3.872692 0.518918 2.709184 0.060954 0.011800 0.004597 8.300553 0.660426 0.013864 1.260585 -0.890641 2.289271 -4.266989 0.530476 1.500182 0.036586 0.127401 -0.008957 
-11.389143 -6.394246 83.027573 1.937091 5.064108 -109.198121 2.468479 0.335225 0.648112 1.094670 0.152171 0.305670 1.094670 0.152171 0.305663 0.821079 0.113581 0.229522 16.656740 -0.483670 -2.746480 -5.222933 0.086242 -5.175736 -24.615725 -2.945676 -7.322539 -50.805443 -16.821446 6.634513 -12.674895 -39.750577 65.556477 -28.272257 0.187465 23.468851 -19.594080 3.387598 0.480120 -49.051075 16.811005 -9.313320 -16.749888 22.316480 -64.608112 -25.101640 -0.022174 -21.552676 7.504339 0.334539 -3.595634 2.189645 -1.294361 -6.361292 -3.863843 0.514218 2.718878 0.064405 0.013896 0.004489 8.303325 0.662619 0.001203 1.286324 -0.885706 2.267586 -4.275266 0.496390 1.530598 0.035534 0.124816 -0.009518 
-11.366127 -6.401165 83.027443 1.947950 5.091705 -109.235523 2.497608 0.326570 0.651958 1.107875 0.147949 0.308146 1.107876 0.147949 0.308143 0.830981 0.110404 0.231375 16.628425 -0.464604 -2.710534 -5.275801 0.109424 -5.103534 -24.627956 -2.959545 -7.315958 -50.787108 -16.831302 6.634634 -12.533229 -39.631466 65.534326 -27.899598 0.421114 23.503682 -19.582946 3.390974 0.460968 -49.116444 16.842584 -9.320285 -16.701296 22.262833 -64.536600 -24.962192 -0.140919 -21.584999 7.507711 0.339207 -3.582749 2.201103 -1.295458 -6.359098 -3.857435 0.511199 2.736319 0.067014 0.015069 0.004119 8.307424 0.670687 -0.014330 1.311614 -0.888873 2.256639 -4.283022 0.467237 1.576590 0.034593 0.120566 -0.009969 
-11.344911 -6.407954 83.027573 1.959033 5.116382 -109.274701 2.527890 0.317384 0.655127 1.121243 0.143365 0.310721 1.121243 0.143364 0.310726 0.841006 0.106954 0.233302 16.602616 -0.449944 -2.672909 -5.324197 0.123864 -5.029820 -24.620426 -2.955586 -7.326767 -50.760409 -16.853254 6.644837 -12.406686 -39.552113 65.527387 -27.685219 0.703839 23.605754 -19.609396 3.393807 0.439323 -49.140667 16.857025 -9.330915 -16.664121 22.223788 -64.456721 -24.964352 -0.279083 -21.690388 7.511695 0.340598 -3.564606 2.207424 -1.293017 -6.357956 -3.849431 0.506177 2.755064 0.069326 0.016647 0.004511 8.311798 0.674918 -0.024290 1.335235 -0.889298 2.243866 -4.291004 0.438669 1.617357 0.032819 0.117090 -0.010973 
-11.324247 -6.412711 83.027870 1.967932 5.137657 -109.312560 2.555653 0.309533 0.660676 1.133678 0.139855 0.313931 1.133678 0.139855 0.313930 0.850330 0.104309 0.235710 16.578975 -0.438928 -2.637398 -5.368656 0.132300 -4.961213 -24.602734 -2.955980 -7.337243 -50.698104 -16.886808 6.655137 -12.318874 -39.455380 65.580171 -27.550492 0.998772 23.718686 -19.587574 3.392545 0.408544 -49.191774 16.880329 -9.333003 -16.676267 22.232886 -64.410651 -25.057941 -0.345380 -21.739654 7.514057 0.341464 -3.555613 2.211766 -1.290593 -6.350382 -3.841056 0.502132 2.769181 0.070506 0.018212 0.004662 8.310774 0.680524 -0.030011 1.359570 -0.886650 2.232799 -4.297815 0.408674 1.684229 0.030688 0.112781 -0.010636 
